<mxfile host="app.diagrams.net" modified="2023-08-09T05:35:46.725Z" agent="Mozilla/5.0 (Windows NT 10.0; Win64; x64) AppleWebKit/537.36 (KHTML, like Gecko) Chrome/115.0.0.0 Safari/537.36" etag="wAnPmFzZjkNn6x5h6Mpr" version="21.6.6" type="github">
  <diagram id="prtHgNgQTEPvFCAcTncT" name="Page-1">
    <mxGraphModel dx="869" dy="1743" grid="1" gridSize="10" guides="1" tooltips="1" connect="1" arrows="1" fold="1" page="1" pageScale="1" pageWidth="827" pageHeight="1169" math="0" shadow="0">
      <root>
        <mxCell id="0" />
        <mxCell id="1" parent="0" />
        <mxCell id="dNxyNK7c78bLwvsdeMH5-11" value="Car Washing System(CWS)-Organization Chart" style="swimlane;html=1;startSize=20;horizontal=1;containerType=tree;glass=0;" parent="1" vertex="1">
          <mxGeometry x="270" y="-240" width="827" height="840" as="geometry" />
        </mxCell>
        <UserObject label="Super Admin&lt;br&gt;Director/Founder&lt;br&gt;&lt;a href=&quot;mailto:%email%&quot;&gt;Email&lt;/a&gt;" name="Tessa Miller" position="CFO" location="Office 1" email="me@example.com" placeholders="1" link="https://www.draw.io" id="dNxyNK7c78bLwvsdeMH5-12">
          <mxCell style="label;image=https://cdn3.iconfinder.com/data/icons/user-avatars-1/512/users-3-128.png;whiteSpace=wrap;html=1;rounded=0;glass=0;treeMoving=1;treeFolding=1;" parent="dNxyNK7c78bLwvsdeMH5-11" vertex="1">
            <mxGeometry x="319" y="40" width="180" height="70" as="geometry" />
          </mxCell>
        </UserObject>
        <mxCell id="dNxyNK7c78bLwvsdeMH5-13" value="" style="endArrow=blockThin;endFill=1;fontSize=11;edgeStyle=elbowEdgeStyle;elbow=vertical;rounded=0;" parent="dNxyNK7c78bLwvsdeMH5-11" source="dNxyNK7c78bLwvsdeMH5-12" target="dNxyNK7c78bLwvsdeMH5-14" edge="1">
          <mxGeometry relative="1" as="geometry" />
        </mxCell>
        <UserObject label="&lt;div style=&quot;text-align: center;&quot;&gt;Zone 1&lt;/div&gt;T Lead/Supervisor ..1" name="Edward Morrison" position="Brand Manager" location="Office 2" email="me@example.com" placeholders="1" link="https://www.draw.io" id="dNxyNK7c78bLwvsdeMH5-14">
          <mxCell style="label;image=https://cdn3.iconfinder.com/data/icons/user-avatars-1/512/users-10-3-128.png;whiteSpace=wrap;html=1;rounded=0;glass=0;treeFolding=1;treeMoving=1;" parent="dNxyNK7c78bLwvsdeMH5-11" vertex="1">
            <mxGeometry x="40" y="180" width="180" height="80" as="geometry" />
          </mxCell>
        </UserObject>
        <mxCell id="dNxyNK7c78bLwvsdeMH5-15" value="" style="endArrow=blockThin;endFill=1;fontSize=11;edgeStyle=elbowEdgeStyle;elbow=vertical;rounded=0;" parent="dNxyNK7c78bLwvsdeMH5-11" source="dNxyNK7c78bLwvsdeMH5-12" target="dNxyNK7c78bLwvsdeMH5-16" edge="1">
          <mxGeometry relative="1" as="geometry" />
        </mxCell>
        <UserObject label="Zone-2&lt;br&gt;TL/Supervisor ..n" name="Evan Valet" position="HR Director" location="Office 4" email="me@example.com" placeholders="1" link="https://www.draw.io" id="dNxyNK7c78bLwvsdeMH5-16">
          <mxCell style="label;image=https://cdn3.iconfinder.com/data/icons/user-avatars-1/512/users-9-2-128.png;whiteSpace=wrap;html=1;rounded=0;glass=0;treeFolding=1;treeMoving=1;align=center;" parent="dNxyNK7c78bLwvsdeMH5-11" vertex="1">
            <mxGeometry x="319" y="180" width="180" height="80" as="geometry" />
          </mxCell>
        </UserObject>
        <mxCell id="dNxyNK7c78bLwvsdeMH5-17" value="" style="endArrow=blockThin;endFill=1;fontSize=11;edgeStyle=elbowEdgeStyle;elbow=vertical;rounded=0;" parent="dNxyNK7c78bLwvsdeMH5-11" edge="1">
          <mxGeometry relative="1" as="geometry">
            <mxPoint x="410" y="110" as="sourcePoint" />
            <mxPoint x="680" y="175" as="targetPoint" />
            <Array as="points">
              <mxPoint x="540" y="145" />
            </Array>
          </mxGeometry>
        </mxCell>
        <UserObject label="Zone nth&lt;br&gt;TL/Supervisor nth" name="Alison Donovan" position="System Admin" location="Office 3" email="me@example.com" placeholders="1" link="https://www.draw.io" id="dNxyNK7c78bLwvsdeMH5-18">
          <mxCell style="label;image=https://cdn3.iconfinder.com/data/icons/user-avatars-1/512/users-2-128.png;whiteSpace=wrap;html=1;rounded=0;glass=0;align=center;" parent="dNxyNK7c78bLwvsdeMH5-11" vertex="1">
            <mxGeometry x="590" y="180" width="180" height="80" as="geometry" />
          </mxCell>
        </UserObject>
        <mxCell id="a1Ee__5H-bBItDAO0HOO-1" value="" style="endArrow=blockThin;endFill=1;fontSize=11;edgeStyle=elbowEdgeStyle;elbow=vertical;rounded=0;" edge="1" parent="dNxyNK7c78bLwvsdeMH5-11" target="a1Ee__5H-bBItDAO0HOO-2">
          <mxGeometry relative="1" as="geometry">
            <mxPoint x="140" y="260" as="sourcePoint" />
          </mxGeometry>
        </mxCell>
        <mxCell id="a1Ee__5H-bBItDAO0HOO-3" value="" style="endArrow=blockThin;endFill=1;fontSize=11;edgeStyle=elbowEdgeStyle;elbow=vertical;rounded=0;" edge="1" parent="dNxyNK7c78bLwvsdeMH5-11" target="a1Ee__5H-bBItDAO0HOO-4">
          <mxGeometry relative="1" as="geometry">
            <mxPoint x="140" y="260" as="sourcePoint" />
          </mxGeometry>
        </mxCell>
        <mxCell id="a1Ee__5H-bBItDAO0HOO-5" value="" style="endArrow=blockThin;endFill=1;fontSize=11;edgeStyle=elbowEdgeStyle;elbow=vertical;rounded=0;" edge="1" parent="dNxyNK7c78bLwvsdeMH5-11" target="a1Ee__5H-bBItDAO0HOO-6">
          <mxGeometry relative="1" as="geometry">
            <mxPoint x="140" y="260" as="sourcePoint" />
          </mxGeometry>
        </mxCell>
        <UserObject label="Washer/Auto-owner" name="Evan Valet" position="HR Director" location="Office 4" email="me@example.com" placeholders="1" link="https://www.draw.io" id="a1Ee__5H-bBItDAO0HOO-4">
          <mxCell style="label;image=https://cdn3.iconfinder.com/data/icons/user-avatars-1/512/users-9-2-128.png;whiteSpace=wrap;html=1;rounded=0;glass=0;treeFolding=1;treeMoving=1;fontSize=11;" vertex="1" parent="dNxyNK7c78bLwvsdeMH5-11">
            <mxGeometry x="150" y="305" width="120" height="35" as="geometry" />
          </mxCell>
        </UserObject>
        <UserObject label="Washer/Auto-owner" name="Edward Morrison" position="Brand Manager" location="Office 2" email="me@example.com" placeholders="1" link="https://www.draw.io" id="a1Ee__5H-bBItDAO0HOO-2">
          <mxCell style="label;image=https://cdn3.iconfinder.com/data/icons/user-avatars-1/512/users-10-3-128.png;whiteSpace=wrap;html=1;rounded=0;glass=0;treeFolding=1;treeMoving=1;fontSize=11;" vertex="1" parent="dNxyNK7c78bLwvsdeMH5-11">
            <mxGeometry x="10" y="305" width="120" height="37" as="geometry" />
          </mxCell>
        </UserObject>
        <mxCell id="a1Ee__5H-bBItDAO0HOO-33" value="service @" style="edgeStyle=orthogonalEdgeStyle;rounded=0;orthogonalLoop=1;jettySize=auto;html=1;entryX=0.505;entryY=0.068;entryDx=0;entryDy=0;entryPerimeter=0;" edge="1" parent="dNxyNK7c78bLwvsdeMH5-11" source="a1Ee__5H-bBItDAO0HOO-6" target="a1Ee__5H-bBItDAO0HOO-31">
          <mxGeometry relative="1" as="geometry" />
        </mxCell>
        <UserObject label="Washer/Auo-owner" name="Alison Donovan" position="System Admin" location="Office 3" email="me@example.com" placeholders="1" link="https://www.draw.io" id="a1Ee__5H-bBItDAO0HOO-6">
          <mxCell style="label;image=https://cdn3.iconfinder.com/data/icons/user-avatars-1/512/users-2-128.png;whiteSpace=wrap;html=1;rounded=0;glass=0;fontSize=11;" vertex="1" parent="dNxyNK7c78bLwvsdeMH5-11">
            <mxGeometry x="80" y="435" width="120" height="37" as="geometry" />
          </mxCell>
        </UserObject>
        <mxCell id="a1Ee__5H-bBItDAO0HOO-13" value="" style="endArrow=blockThin;endFill=1;fontSize=11;edgeStyle=elbowEdgeStyle;elbow=vertical;rounded=0;" edge="1" parent="dNxyNK7c78bLwvsdeMH5-11" target="a1Ee__5H-bBItDAO0HOO-17">
          <mxGeometry relative="1" as="geometry">
            <mxPoint x="409" y="260" as="sourcePoint" />
          </mxGeometry>
        </mxCell>
        <mxCell id="a1Ee__5H-bBItDAO0HOO-14" value="" style="endArrow=blockThin;endFill=1;fontSize=11;edgeStyle=elbowEdgeStyle;elbow=vertical;rounded=0;" edge="1" parent="dNxyNK7c78bLwvsdeMH5-11" target="a1Ee__5H-bBItDAO0HOO-16">
          <mxGeometry relative="1" as="geometry">
            <mxPoint x="409" y="260" as="sourcePoint" />
          </mxGeometry>
        </mxCell>
        <mxCell id="a1Ee__5H-bBItDAO0HOO-15" value="" style="endArrow=blockThin;endFill=1;fontSize=11;edgeStyle=elbowEdgeStyle;elbow=vertical;rounded=0;" edge="1" parent="dNxyNK7c78bLwvsdeMH5-11" target="a1Ee__5H-bBItDAO0HOO-18">
          <mxGeometry relative="1" as="geometry">
            <mxPoint x="409" y="260" as="sourcePoint" />
          </mxGeometry>
        </mxCell>
        <UserObject label="Washer/Auto-owner" name="Evan Valet" position="HR Director" location="Office 4" email="me@example.com" placeholders="1" link="https://www.draw.io" id="a1Ee__5H-bBItDAO0HOO-16">
          <mxCell style="label;image=https://cdn3.iconfinder.com/data/icons/user-avatars-1/512/users-9-2-128.png;whiteSpace=wrap;html=1;rounded=0;glass=0;treeFolding=1;treeMoving=1;fontSize=11;" vertex="1" parent="dNxyNK7c78bLwvsdeMH5-11">
            <mxGeometry x="419" y="305" width="130" height="37" as="geometry" />
          </mxCell>
        </UserObject>
        <UserObject label="Washer/Auto-owner" name="Edward Morrison" position="Brand Manager" location="Office 2" email="me@example.com" placeholders="1" link="https://www.draw.io" id="a1Ee__5H-bBItDAO0HOO-17">
          <mxCell style="label;image=https://cdn3.iconfinder.com/data/icons/user-avatars-1/512/users-10-3-128.png;whiteSpace=wrap;html=1;rounded=0;glass=0;treeFolding=1;treeMoving=1;fontSize=11;" vertex="1" parent="dNxyNK7c78bLwvsdeMH5-11">
            <mxGeometry x="279" y="305" width="120" height="37" as="geometry" />
          </mxCell>
        </UserObject>
        <UserObject label="Washer/Auo-owner" name="Alison Donovan" position="System Admin" location="Office 3" email="me@example.com" placeholders="1" link="https://www.draw.io" id="a1Ee__5H-bBItDAO0HOO-18">
          <mxCell style="label;image=https://cdn3.iconfinder.com/data/icons/user-avatars-1/512/users-2-128.png;whiteSpace=wrap;html=1;rounded=0;glass=0;fontSize=11;" vertex="1" parent="dNxyNK7c78bLwvsdeMH5-11">
            <mxGeometry x="349" y="435" width="120" height="37" as="geometry" />
          </mxCell>
        </UserObject>
        <mxCell id="a1Ee__5H-bBItDAO0HOO-25" value="" style="endArrow=blockThin;endFill=1;fontSize=11;edgeStyle=elbowEdgeStyle;elbow=vertical;rounded=0;" edge="1" parent="dNxyNK7c78bLwvsdeMH5-11" target="a1Ee__5H-bBItDAO0HOO-29">
          <mxGeometry relative="1" as="geometry">
            <mxPoint x="687" y="260" as="sourcePoint" />
          </mxGeometry>
        </mxCell>
        <mxCell id="a1Ee__5H-bBItDAO0HOO-26" value="" style="endArrow=blockThin;endFill=1;fontSize=11;edgeStyle=elbowEdgeStyle;elbow=vertical;rounded=0;" edge="1" parent="dNxyNK7c78bLwvsdeMH5-11" target="a1Ee__5H-bBItDAO0HOO-28">
          <mxGeometry relative="1" as="geometry">
            <mxPoint x="687" y="260" as="sourcePoint" />
          </mxGeometry>
        </mxCell>
        <mxCell id="a1Ee__5H-bBItDAO0HOO-27" value="" style="endArrow=blockThin;endFill=1;fontSize=11;edgeStyle=elbowEdgeStyle;elbow=vertical;rounded=0;" edge="1" parent="dNxyNK7c78bLwvsdeMH5-11" target="a1Ee__5H-bBItDAO0HOO-30">
          <mxGeometry relative="1" as="geometry">
            <mxPoint x="687" y="260" as="sourcePoint" />
          </mxGeometry>
        </mxCell>
        <UserObject label="Washer/Auto-owner" name="Evan Valet" position="HR Director" location="Office 4" email="me@example.com" placeholders="1" link="https://www.draw.io" id="a1Ee__5H-bBItDAO0HOO-28">
          <mxCell style="label;image=https://cdn3.iconfinder.com/data/icons/user-avatars-1/512/users-9-2-128.png;whiteSpace=wrap;html=1;rounded=0;glass=0;treeFolding=1;treeMoving=1;fontSize=11;" vertex="1" parent="dNxyNK7c78bLwvsdeMH5-11">
            <mxGeometry x="697" y="305" width="130" height="37" as="geometry" />
          </mxCell>
        </UserObject>
        <UserObject label="Washer/Auto-owner" name="Edward Morrison" position="Brand Manager" location="Office 2" email="me@example.com" placeholders="1" link="https://www.draw.io" id="a1Ee__5H-bBItDAO0HOO-29">
          <mxCell style="label;image=https://cdn3.iconfinder.com/data/icons/user-avatars-1/512/users-10-3-128.png;whiteSpace=wrap;html=1;rounded=0;glass=0;treeFolding=1;treeMoving=1;fontSize=11;" vertex="1" parent="dNxyNK7c78bLwvsdeMH5-11">
            <mxGeometry x="557" y="305" width="120" height="37" as="geometry" />
          </mxCell>
        </UserObject>
        <UserObject label="Washer/Auo-owner" name="Alison Donovan" position="System Admin" location="Office 3" email="me@example.com" placeholders="1" link="https://www.draw.io" id="a1Ee__5H-bBItDAO0HOO-30">
          <mxCell style="label;image=https://cdn3.iconfinder.com/data/icons/user-avatars-1/512/users-2-128.png;whiteSpace=wrap;html=1;rounded=0;glass=0;fontSize=11;" vertex="1" parent="dNxyNK7c78bLwvsdeMH5-11">
            <mxGeometry x="627" y="435" width="120" height="37" as="geometry" />
          </mxCell>
        </UserObject>
        <mxCell id="a1Ee__5H-bBItDAO0HOO-31" value="Geo-Location" style="ellipse;shape=cloud;whiteSpace=wrap;html=1;" vertex="1" parent="dNxyNK7c78bLwvsdeMH5-11">
          <mxGeometry x="80" y="570" width="120" height="80" as="geometry" />
        </mxCell>
        <mxCell id="a1Ee__5H-bBItDAO0HOO-34" value="service @" style="edgeStyle=orthogonalEdgeStyle;rounded=0;orthogonalLoop=1;jettySize=auto;html=1;entryX=0.505;entryY=0.068;entryDx=0;entryDy=0;entryPerimeter=0;" edge="1" parent="dNxyNK7c78bLwvsdeMH5-11" target="a1Ee__5H-bBItDAO0HOO-35">
          <mxGeometry relative="1" as="geometry">
            <mxPoint x="409" y="460" as="sourcePoint" />
          </mxGeometry>
        </mxCell>
        <mxCell id="a1Ee__5H-bBItDAO0HOO-35" value="Geo-Location" style="ellipse;shape=cloud;whiteSpace=wrap;html=1;" vertex="1" parent="dNxyNK7c78bLwvsdeMH5-11">
          <mxGeometry x="349" y="558" width="120" height="80" as="geometry" />
        </mxCell>
        <mxCell id="a1Ee__5H-bBItDAO0HOO-36" value="service @" style="edgeStyle=orthogonalEdgeStyle;rounded=0;orthogonalLoop=1;jettySize=auto;html=1;entryX=0.505;entryY=0.068;entryDx=0;entryDy=0;entryPerimeter=0;" edge="1" parent="dNxyNK7c78bLwvsdeMH5-11" target="a1Ee__5H-bBItDAO0HOO-37">
          <mxGeometry relative="1" as="geometry">
            <mxPoint x="687" y="460" as="sourcePoint" />
          </mxGeometry>
        </mxCell>
        <mxCell id="a1Ee__5H-bBItDAO0HOO-37" value="Geo-Location" style="ellipse;shape=cloud;whiteSpace=wrap;html=1;" vertex="1" parent="dNxyNK7c78bLwvsdeMH5-11">
          <mxGeometry x="627" y="558" width="120" height="80" as="geometry" />
        </mxCell>
      </root>
    </mxGraphModel>
  </diagram>
</mxfile>
